<svg width="294" height="288" viewBox="0 0 294 288" fill="none" xmlns="http://www.w3.org/2000/svg">
    <rect width="294" height="288" fill="#E5E5E5"/>
    <rect width="294" height="288" fill="#F7337A"/>
    <path stroke-width="1" fill="#FFFFFF" d="M46 185C67.3816 185.403 88.4518 188 109.889 188C115.253 188 120.838 187 126.389 187C127.097 187 133.506 187.319 133.556 186.778C133.751 184.63 133 181.795 133 179.5C133 158.554 116.024 153.35 98.1111 149C80.0505 144.614 61.2286 140.181 43.6667 148.5C35.7536 152.248 30.8596 165.708 29 173.611C26.2615 185.25 21.7438 194.925 25.5 206.944C27.3688 212.925 28.6798 218.418 34.5 222C40.6111 225.761 45.6498 228.295 53.0556 229C62.5459 229.904 71.0145 233 80.6667 233C88.133 233 94.3722 232.97 101.556 231.222C105.069 230.368 110.738 229.468 112.778 226C114.48 223.106 117.972 219.905 121 218.222C123.602 216.777 131.098 201.385 126.444 200.056C122.524 198.935 117.083 200 113 200C109.79 200 109.805 207.355 106.944 209.5C99.0901 215.391 94.0119 218 84 218C75.5922 218 67.09 214 59 214C53.6582 214 46 207.494 46 202C46 198.097 45.7724 189.545 44 186 Z" stroke="white" stroke-linecap="round" stroke-linejoin="round"/>
    <path stroke-width="1" fill="#F7337A" d="M47 172C52.7501 164.64 59.351 161.4 67.5556 159.056C72.5941 157.616 80.1516 159 85.5 159C90.7065 159 96.0076 162.004 100.5 164.5C102.325 165.514 109.417 169.918 105 171.778C98.5446 174.496 87.463 171.175 81 171C74.1588 170.815 67.2882 171 60.4444 171C56.0947 171 48.5448 169.637 45 172 Z" stroke="white" stroke-linecap="round" stroke-linejoin="round"/>
    <path stroke-width="1" fill="#000" d="M144 51C144 60.0122 144 69.6366 142.944 78.6111C142.247 84.539 140.893 91.465 142.222 97.4444C145.315 111.363 145 127.213 145 141.5C145 156.726 146 172.139 146 187.5C146 196.667 146 205.833 146 215C146 221.542 143.422 229 151.5 229C169.815 229 188.13 229 206.444 229C215.074 229 223.704 229 232.333 229C234.571 229 244 228.878 244 226.5C244 223.641 245 221.359 245 218.5C245 216 245 213.5 245 211C245 206.949 239.325 210 237 210C225.167 210 213.333 210 201.5 210C191.904 210 182.439 210.255 173 210C169.773 209.913 163.759 211.155 161.111 209.5C159.049 208.211 159 202.781 159 200.5C159 192.758 159 185.1 159 177.444C159 173.889 158 170.761 158 167.5C158 163.403 159 159.624 159 155.556C159 152.704 159 149.852 159 147C159 143.647 163.192 144.782 165.5 143.5C167.303 142.499 172.559 142.057 174.556 142C177.08 141.928 183.742 143.258 185.778 141.778C188.22 140.001 191 141.383 191 137.5C191 133.973 192.195 129.873 192.944 126.5C194.015 121.684 177.27 122 174.222 122C171.424 122 160 125.943 160 121.5C160 114.193 158 107.437 158 100.222C158 94.4815 158 88.7407 158 83C158 79.0021 155.283 72.4878 158.222 69.2222C159.528 67.7717 163.695 67.4568 165.5 67.0555C170.24 66.0022 176.162 67 181 67C190.519 67 200.037 67 209.556 67C219.203 67 229.077 66 238.5 66C246.319 66 246 60.2226 246 53C246 48.666 246.375 48 241.556 48C234.751 48 227.655 47 220.667 47C216.069 47 211.777 48 207.222 48C199.413 48 191.776 47 184 47C179.521 47 144 43.4078 144 52 Z" stroke="black" stroke-linecap="round" stroke-linejoin="round"/>
</svg>
